General                          : ChattChitto RG - Movies [R2L]

Complete name                    : X-Men First Class 2011
Format                           : MPEG-4
Format profile                   : Base Media
Codec ID                         : isom
File size                        : 2.54 GiB
Duration                         : 2h 11mn
Overall bit rate                 : 2 761 Kbps
Encoded date                     : UTC 2011-09-08 02:30:25
Tagged date                      : UTC 2011-09-08 02:30:25

Video
==========
ID                               : 1
Format                           : AVC
Format/Info                      : Advanced Video Codec
Format profile                   : High@L4.1
Format settings, CABAC           : Yes
Format settings, ReFrames        : 4 frames
Codec ID                         : avc1
Codec ID/Info                    : Advanced Video Coding
Duration                         : 2h 11mn
Bit rate mode                    : Variable
Bit rate                         : 2 400 Kbps
Maximum bit rate                 : 21.1 Mbps
Width                            : 1 280 pixels
Height                           : 544 pixels
Display aspect ratio             : 2.35:1
Frame rate mode                  : Constant
Frame rate                       : 23.976 fps
Color space                      : YUV
Chroma subsampling               : 4:2:0
Bit depth                        : 8 bits
Scan type                        : Progressive
Bits/(Pixel*Frame)               : 0.144
Stream size                      : 2.21 GiB (87%)
Writing library                  : x264 core 115 r1995 c1e60b9
Encoded date                     : UTC 2011-09-07 08:58:13
Tagged date                      : UTC 2011-09-08 02:30:46

Audio
==========
ID                               : 2
Format                           : AAC
Format/Info                      : Advanced Audio Codec
Format profile                   : LC
Codec ID                         : 40
Duration                         : 2h 11mn
Bit rate mode                    : Variable
Bit rate                         : 352.8 Kbps
Maximum bit rate                 : 420 Kbps
Channel(s)                       : 6 channels
Channel positions                : Front: L C R, Side: L R, LFE
Sampling rate                    : 48.0 KHz
Compression mode                 : Lossy
Stream size                      : 337 MiB (13%)
Encoded date                     : UTC 2011-09-08 02:30:43
Tagged date                      : UTC 2011-09-08 02:30:46

Subtitles                        : Hardcoded German Parts with English | English | Spanish | French


----------------------------------------------------
IMDB Link: http://www.imdb.com/title/tt1270798/
----------------------------------------------------



Screen Shots:
==============     
http://chattchitto.net/chattchittorg/movies/brrip/2011/x-men_first_class/1.png     
http://chattchitto.net/chattchittorg/movies/brrip/2011/x-men_first_class/2.png 
http://chattchitto.net/chattchittorg/movies/brrip/2011/x-men_first_class/3.png 
http://chattchitto.net/chattchittorg/movies/brrip/2011/x-men_first_class/4.png 
http://chattchitto.net/chattchittorg/movies/brrip/2011/x-men_first_class/5.png 
http://chattchitto.net/chattchittorg/movies/brrip/2011/x-men_first_class/6.png 
http://chattchitto.net/chattchittorg/movies/brrip/2011/x-men_first_class/7.png



ScreenShots Comparison:
=========================   
http://screenshotcomparison.com/comparison/79822



Plot:
======
In 1962, the United States government enlists the help of Mutants with superhuman abilities to stop a malicious dictator who is determined to start world war III.



Release Info:
==============
original name .... : X-Men First Class 2011
ripper.............: CHD
encoder............: Recalled2Life (R2L)
video codec........: H264/.MP4
video bitrate......: 2400
audio codec........: AAC-LC
aspect ratio.......: 2.35:1
resolution.........: 1280 x 544
genre..............: Action | Adventure | Drama
runtime............: 2h 11mn
language...........: English
rating.............: PG-13
subtitles..........: Hardcoded German Parts with English | English | Spanish | French
sample.............: Yes
2ch Audio..........: 2ch Audio for XBox Viewers
Compatibility .....: XBox | PS3 | WD Live



Source:
========
X-Men.First.Class.2011.BluRay.1080p.DTS.x264-CHD  THANKS!!!



Notes:
=======
ChattChitto RG Encourages Burning this Film with ConvertXtoDVD and Playing with VLC media player.
XBox 360 | PS3 | WD Live - Compatible 
Enhanced for your viewing pleasure ;)